<?xml version="1.0" encoding="UTF-8"?>
<svg xmlns="http://www.w3.org/2000/svg" viewBox="0 0 64 64" fill="none">
  <rect width="64" height="64" rx="18" fill="#0D0D0D"/>
  <rect x="6" y="6" width="52" height="52" rx="16" stroke="#2A2A2A" stroke-width="2"/>
  <g transform="translate(10 49) scale(0.44)">
    <path fill="#F5F0E8" d="M23.76 0L7.92 0L7.92-84L44.40-84Q52.32-84 58.20-81.24Q64.08-78.48 67.32-73.44Q70.56-68.40 70.56-61.56L70.56-61.56L70.56-60.12Q70.56-52.56 66.96-47.88Q63.36-43.20 58.08-41.04L58.08-41.04L58.08-38.88Q62.88-38.64 65.52-35.58Q68.16-32.52 68.16-27.48L68.16-27.48L68.16 0L52.32 0L52.32-25.20Q52.32-28.08 50.82-29.88Q49.32-31.68 45.84-31.68L45.84-31.68L23.76-31.68L23.76 0ZM23.76-69.60L23.76-46.08L42.72-46.08Q48.36-46.08 51.54-49.14Q54.72-52.20 54.72-57.24L54.72-57.24L54.72-58.44Q54.72-63.48 51.60-66.54Q48.48-69.60 42.72-69.60L42.72-69.60L23.76-69.60Z"/>
  </g>
  <circle cx="43.5" cy="42.5" r="5.5" fill="#FF6B35"/>
</svg>
