<svg xmlns="http://www.w3.org/2000/svg" viewBox="0 0 1200 900">
  <defs>
    <linearGradient id="bg2" x1="0" y1="0" x2="1" y2="1">
      <stop offset="0%" stop-color="#07090c" />
      <stop offset="100%" stop-color="#201916" />
    </linearGradient>
    <linearGradient id="ring" x1="0" y1="0" x2="1" y2="1">
      <stop offset="0%" stop-color="#ff6b35" />
      <stop offset="100%" stop-color="#ffd166" />
    </linearGradient>
  </defs>
  <rect width="1200" height="900" fill="url(#bg2)" />
  <path d="M130 670c110-190 276-278 495-265 188 11 325 94 447 246" fill="none" stroke="#ff6b35" stroke-opacity=".12" stroke-width="20" stroke-linecap="round" />
  <circle cx="860" cy="210" r="180" fill="#ff6b35" opacity=".07" />
  <circle cx="320" cy="150" r="120" fill="#ffd166" opacity=".05" />
  <g transform="translate(240 190)">
    <path d="M110 330c0-87 71-158 158-158h154c87 0 158 71 158 158v118H110V330z" fill="#111114" stroke="#f5f0e8" stroke-opacity=".12" stroke-width="6" />
    <rect x="182" y="182" width="266" height="102" rx="36" fill="#181618" stroke="#ff6b35" stroke-opacity=".35" stroke-width="8" />
    <path d="M208 205c34-46 76-70 125-70s91 24 125 70" fill="none" stroke="url(#ring)" stroke-width="10" stroke-linecap="round" />
    <circle cx="341" cy="270" r="102" fill="#141416" stroke="#ff6b35" stroke-opacity=".24" stroke-width="6" />
    <path d="M341 205c14 18 25 39 25 65 0 36-18 62-25 75-7-13-25-39-25-75 0-26 11-47 25-65z" fill="#ff6b35" opacity=".9" />
    <path d="M341 166v39M341 335v40M278 270h38M366 270h38" stroke="#f5f0e8" stroke-opacity=".22" stroke-width="8" stroke-linecap="round" />
    <path d="M530 100l62 66-62 66" fill="none" stroke="#ff6b35" stroke-width="10" stroke-linecap="round" stroke-linejoin="round" />
    <path d="M550 166H435" fill="none" stroke="#ff6b35" stroke-width="10" stroke-linecap="round" />
    <path d="M505 366l60 32-22 64-68-10-10-68z" fill="#ff6b35" opacity=".82" />
    <path d="M168 500c70-40 161-62 260-62 145 0 270 48 366 126" fill="none" stroke="#f5f0e8" stroke-opacity=".09" stroke-width="10" stroke-linecap="round" />
  </g>
</svg>
