<svg xmlns="http://www.w3.org/2000/svg" viewBox="0 0 1200 900">
  <defs>
    <linearGradient id="bg" x1="0" y1="0" x2="1" y2="1">
      <stop offset="0%" stop-color="#08080b" />
      <stop offset="100%" stop-color="#1b1411" />
    </linearGradient>
    <linearGradient id="glow" x1="0" y1="0" x2="0" y2="1">
      <stop offset="0%" stop-color="#ff6b35" stop-opacity=".9" />
      <stop offset="100%" stop-color="#ff6b35" stop-opacity="0" />
    </linearGradient>
  </defs>
  <rect width="1200" height="900" fill="url(#bg)" />
  <circle cx="270" cy="220" r="160" fill="#ff6b35" opacity=".08" />
  <circle cx="960" cy="180" r="190" fill="#ff6b35" opacity=".06" />
  <path d="M735 215c40 18 73 52 88 94 20 56 7 130-27 173-34 44-88 70-141 76-78 10-172-18-222-73-49-54-58-141-26-201 40-76 139-121 226-116 44 3 86 12 102 47z" fill="url(#glow)" opacity=".45" />
  <g transform="translate(260 270)">
    <rect x="0" y="180" width="620" height="52" rx="26" fill="#201817" stroke="#ff6b35" stroke-opacity=".25" />
    <rect x="110" y="60" width="320" height="170" rx="32" fill="#111114" stroke="#f5f0e8" stroke-opacity=".12" />
    <path d="M160 94h140c30 0 54 24 54 54v20c0 30-24 54-54 54H160c-30 0-54-24-54-54v-20c0-30 24-54 54-54z" fill="none" stroke="#f5f0e8" stroke-opacity=".14" stroke-width="8" />
    <path d="M245 78c12-28 28-44 50-52" fill="none" stroke="#ff6b35" stroke-width="8" stroke-linecap="round" />
    <path d="M290 34c10 13 17 30 17 48" fill="none" stroke="#ff6b35" stroke-width="8" stroke-linecap="round" />
    <path d="M325 58c12 14 20 31 21 50" fill="none" stroke="#ff6b35" stroke-width="8" stroke-linecap="round" opacity=".7" />
    <circle cx="505" cy="120" r="94" fill="#151212" stroke="#f5f0e8" stroke-opacity=".1" stroke-width="6" />
    <path d="M474 120h62M505 89v62" stroke="#ff6b35" stroke-width="10" stroke-linecap="round" />
    <path d="M506 62v116" stroke="#ff6b35" stroke-opacity=".25" stroke-width="10" stroke-linecap="round" />
    <path d="M552 92l42-42" stroke="#f5f0e8" stroke-opacity=".18" stroke-width="10" stroke-linecap="round" />
    <path d="M552 148l42 42" stroke="#f5f0e8" stroke-opacity=".18" stroke-width="10" stroke-linecap="round" />
    <path d="M458 92l-42-42" stroke="#f5f0e8" stroke-opacity=".18" stroke-width="10" stroke-linecap="round" />
    <path d="M458 148l-42 42" stroke="#f5f0e8" stroke-opacity=".18" stroke-width="10" stroke-linecap="round" />
    <circle cx="415" cy="116" r="22" fill="#ff6b35" opacity=".85" />
    <path d="M435 142c45 46 85 54 118 46" fill="none" stroke="#ff6b35" stroke-opacity=".34" stroke-width="8" stroke-linecap="round" />
    <path d="M145 300c58-22 118-22 180 0" fill="none" stroke="#ff6b35" stroke-opacity=".24" stroke-width="8" stroke-linecap="round" />
    <path d="M168 334c54-18 108-18 163 0" fill="none" stroke="#f5f0e8" stroke-opacity=".08" stroke-width="6" stroke-linecap="round" />
  </g>
</svg>
