<?xml version="1.0" encoding="UTF-8"?>
<svg xmlns="http://www.w3.org/2000/svg" viewBox="0 0 520 220" fill="none">
  <title>Roast logo concept 03 monogram badge</title>
  <rect x="28" y="42" width="132" height="132" rx="30" stroke="#FF6B35" stroke-width="10"/>
  <g fill="#F5F0E8" transform="translate(41 151) scale(1.16)">
    <path d="M23.76 0L7.92 0L7.92-84L44.40-84Q52.32-84 58.20-81.24Q64.08-78.48 67.32-73.44Q70.56-68.40 70.56-61.56L70.56-61.56L70.56-60.12Q70.56-52.56 66.96-47.88Q63.36-43.20 58.08-41.04L58.08-41.04L58.08-38.88Q62.88-38.64 65.52-35.58Q68.16-32.52 68.16-27.48L68.16-27.48L68.16 0L52.32 0L52.32-25.20Q52.32-28.08 50.82-29.88Q49.32-31.68 45.84-31.68L45.84-31.68L23.76-31.68L23.76 0ZM23.76-69.60L23.76-46.08L42.72-46.08Q48.36-46.08 51.54-49.14Q54.72-52.20 54.72-57.24L54.72-57.24L54.72-58.44Q54.72-63.48 51.60-66.54Q48.48-69.60 42.72-69.60L42.72-69.60L23.76-69.60ZM93.84 1.68L93.84 1.68Q88.92 1.68 85.62-1.50Q82.32-4.68 82.32-9.72L82.32-9.72Q82.32-14.76 85.62-17.94Q88.92-21.12 93.84-21.12L93.84-21.12Q98.64-21.12 101.88-17.94Q105.12-14.76 105.12-9.72L105.12-9.72Q105.12-4.68 101.88-1.50Q98.64 1.68 93.84 1.68Z"/>
  </g>
  <circle cx="150" cy="140" r="11" fill="#FF6B35"/>
  <line x1="192" y1="60" x2="192" y2="156" stroke="#FF6B35" stroke-width="8" stroke-linecap="round"/>
  <g fill="#F5F0E8" transform="translate(218 117) scale(0.74)">
    <path d="M23.76 0L7.92 0L7.92-84L44.40-84Q52.32-84 58.20-81.24Q64.08-78.48 67.32-73.44Q70.56-68.40 70.56-61.56L70.56-61.56L70.56-60.12Q70.56-52.56 66.96-47.88Q63.36-43.20 58.08-41.04L58.08-41.04L58.08-38.88Q62.88-38.64 65.52-35.58Q68.16-32.52 68.16-27.48L68.16-27.48L68.16 0L52.32 0L52.32-25.20Q52.32-28.08 50.82-29.88Q49.32-31.68 45.84-31.68L45.84-31.68L23.76-31.68L23.76 0ZM23.76-69.60L23.76-46.08L42.72-46.08Q48.36-46.08 51.54-49.14Q54.72-52.20 54.72-57.24L54.72-57.24L54.72-58.44Q54.72-63.48 51.60-66.54Q48.48-69.60 42.72-69.60L42.72-69.60L23.76-69.60ZM116.40 1.68L116.40 1.68Q100.56 1.68 91.20-7.02Q81.84-15.72 81.84-31.92L81.84-31.92L81.84-52.08Q81.84-68.28 91.20-76.98Q100.56-85.68 116.40-85.68L116.40-85.68Q132.24-85.68 141.60-76.98Q150.96-68.28 150.96-52.08L150.96-52.08L150.96-31.92Q150.96-15.72 141.60-7.02Q132.24 1.68 116.40 1.68ZM116.40-12.48L116.40-12.48Q125.28-12.48 130.20-17.64Q135.12-22.80 135.12-31.44L135.12-31.44L135.12-52.56Q135.12-61.20 130.20-66.36Q125.28-71.52 116.40-71.52L116.40-71.52Q107.64-71.52 102.66-66.36Q97.68-61.20 97.68-52.56L97.68-52.56L97.68-31.44Q97.68-22.80 102.66-17.64Q107.64-12.48 116.40-12.48ZM174.72 0L158.40 0L180.48-84L208.08-84L230.16 0L213.84 0L209.28-18.48L179.28-18.48L174.72 0ZM193.20-74.04L183.00-33.12L205.56-33.12L195.36-74.04L193.20-74.04ZM269.40 1.68L269.40 1.68Q259.68 1.68 252.24-1.80Q244.80-5.28 240.60-11.76Q236.40-18.24 236.40-27.36L236.40-27.36L236.40-30.72L252-30.72L252-27.36Q252-19.80 256.68-16.02Q261.36-12.24 269.40-12.24L269.40-12.24Q277.56-12.24 281.58-15.48Q285.60-18.72 285.60-23.76L285.60-23.76Q285.60-27.24 283.62-29.40Q281.64-31.56 277.86-32.94Q274.08-34.32 268.68-35.52L268.68-35.52L265.92-36.12Q257.28-38.04 251.10-40.98Q244.92-43.92 241.62-48.72Q238.32-53.52 238.32-61.20L238.32-61.20Q238.32-68.88 241.98-74.34Q245.64-79.80 252.30-82.74Q258.96-85.68 267.96-85.68L267.96-85.68Q276.96-85.68 283.98-82.62Q291-79.56 295.02-73.50Q299.04-67.44 299.04-58.32L299.04-58.32L299.04-54.72L283.44-54.72L283.44-58.32Q283.44-63.12 281.58-66.06Q279.72-69 276.24-70.38Q272.76-71.76 267.96-71.76L267.96-71.76Q260.76-71.76 257.34-69.06Q253.92-66.36 253.92-61.68L253.92-61.68Q253.92-58.56 255.54-56.40Q257.16-54.24 260.40-52.80Q263.64-51.36 268.68-50.28L268.68-50.28L271.44-49.68Q280.44-47.76 287.10-44.76Q293.76-41.76 297.48-36.84Q301.20-31.92 301.20-24.24L301.20-24.24Q301.20-16.56 297.30-10.74Q293.40-4.92 286.26-1.62Q279.12 1.68 269.40 1.68ZM345.60 0L329.76 0L329.76-69.60L305.28-69.60L305.28-84L370.08-84L370.08-69.60L345.60-69.60L345.60 0Z"/>
  </g>
  <circle cx="502" cy="109" r="9" fill="#FF6B35"/>
  <rect x="218" y="136" width="116" height="10" rx="5" fill="#FF6B35"/>
</svg>
