<?xml version="1.0" encoding="UTF-8"?>
<svg xmlns="http://www.w3.org/2000/svg" viewBox="0 0 520 180" fill="none">
  <title>Roast logo concept 01 core wordmark</title>
  <g fill="#F5F0E8" transform="translate(40 118) scale(1.15)">
    <path d="M23.76 0L7.92 0L7.92-84L44.40-84Q52.32-84 58.20-81.24Q64.08-78.48 67.32-73.44Q70.56-68.40 70.56-61.56L70.56-61.56L70.56-60.12Q70.56-52.56 66.96-47.88Q63.36-43.20 58.08-41.04L58.08-41.04L58.08-38.88Q62.88-38.64 65.52-35.58Q68.16-32.52 68.16-27.48L68.16-27.48L68.16 0L52.32 0L52.32-25.20Q52.32-28.08 50.82-29.88Q49.32-31.68 45.84-31.68L45.84-31.68L23.76-31.68L23.76 0ZM23.76-69.60L23.76-46.08L42.72-46.08Q48.36-46.08 51.54-49.14Q54.72-52.20 54.72-57.24L54.72-57.24L54.72-58.44Q54.72-63.48 51.60-66.54Q48.48-69.60 42.72-69.60L42.72-69.60L23.76-69.60ZM112.56 1.68L112.56 1.68Q103.68 1.68 96.60-1.92Q89.52-5.52 85.44-12.36Q81.36-19.20 81.36-28.80L81.36-28.80L81.36-30.72Q81.36-40.32 85.44-47.16Q89.52-54 96.60-57.60Q103.68-61.20 112.56-61.20L112.56-61.20Q121.44-61.20 128.52-57.60Q135.60-54 139.68-47.16Q143.76-40.32 143.76-30.72L143.76-30.72L143.76-28.80Q143.76-19.20 139.68-12.36Q135.60-5.52 128.52-1.92Q121.44 1.68 112.56 1.68ZM112.56-11.76L112.56-11.76Q119.52-11.76 124.08-16.26Q128.64-20.76 128.64-29.16L128.64-29.16L128.64-30.36Q128.64-38.76 124.14-43.26Q119.64-47.76 112.56-47.76L112.56-47.76Q105.60-47.76 101.04-43.26Q96.48-38.76 96.48-30.36L96.48-30.36L96.48-29.16Q96.48-20.76 101.04-16.26Q105.60-11.76 112.56-11.76ZM176.16 1.68L176.16 1.68Q169.80 1.68 164.76-0.54Q159.72-2.76 156.78-7.02Q153.84-11.28 153.84-17.40L153.84-17.40Q153.84-23.52 156.78-27.66Q159.72-31.80 164.94-33.90Q170.16-36 176.88-36L176.88-36L193.20-36L193.20-39.36Q193.20-43.56 190.56-46.26Q187.92-48.96 182.16-48.96L182.16-48.96Q176.52-48.96 173.76-46.38Q171-43.80 170.16-39.72L170.16-39.72L156.24-44.40Q157.68-48.96 160.86-52.74Q164.04-56.52 169.38-58.86Q174.72-61.20 182.40-61.20L182.40-61.20Q194.16-61.20 201-55.32Q207.84-49.44 207.84-38.28L207.84-38.28L207.84-16.08Q207.84-12.48 211.20-12.48L211.20-12.48L216-12.48L216 0L205.92 0Q201.48 0 198.60-2.16Q195.72-4.32 195.72-7.92L195.72-7.92L195.72-8.04L193.44-8.04Q192.96-6.60 191.28-4.26Q189.60-1.92 186-0.12Q182.40 1.68 176.16 1.68ZM178.80-10.56L178.80-10.56Q185.16-10.56 189.18-14.10Q193.20-17.64 193.20-23.52L193.20-23.52L193.20-24.72L177.96-24.72Q173.76-24.72 171.36-22.92Q168.96-21.12 168.96-17.88L168.96-17.88Q168.96-14.64 171.48-12.60Q174-10.56 178.80-10.56ZM251.28 1.68L251.28 1.68Q239.64 1.68 232.20-3.36Q224.76-8.40 223.20-17.76L223.20-17.76L237.12-21.36Q237.96-17.16 239.94-14.76Q241.92-12.36 244.86-11.34Q247.80-10.32 251.28-10.32L251.28-10.32Q256.56-10.32 259.08-12.18Q261.60-14.04 261.60-16.80L261.60-16.80Q261.60-19.56 259.20-21.06Q256.80-22.56 251.52-23.52L251.52-23.52L248.16-24.12Q241.92-25.32 236.76-27.42Q231.60-29.52 228.48-33.24Q225.36-36.96 225.36-42.84L225.36-42.84Q225.36-51.72 231.84-56.46Q238.32-61.20 248.88-61.20L248.88-61.20Q258.84-61.20 265.44-56.76Q272.04-52.32 274.08-45.12L274.08-45.12L260.04-40.80Q259.08-45.36 256.14-47.28Q253.20-49.20 248.88-49.20L248.88-49.20Q244.56-49.20 242.28-47.70Q240-46.20 240-43.56L240-43.56Q240-40.68 242.40-39.30Q244.80-37.92 248.88-37.20L248.88-37.20L252.24-36.60Q258.96-35.40 264.42-33.42Q269.88-31.44 273.06-27.78Q276.24-24.12 276.24-17.88L276.24-17.88Q276.24-8.52 269.46-3.42Q262.68 1.68 251.28 1.68ZM327.84 0L311.04 0Q305.16 0 301.50-3.66Q297.84-7.32 297.84-13.44L297.84-13.44L297.84-47.04L282.96-47.04L282.96-59.52L297.84-59.52L297.84-78L312.96-78L312.96-59.52L329.28-59.52L329.28-47.04L312.96-47.04L312.96-16.08Q312.96-12.48 316.32-12.48L316.32-12.48L327.84-12.48L327.84 0Z"/>
  </g>
  <circle cx="438" cy="107" r="10" fill="#FF6B35"/>
  <rect x="144" y="127" width="118" height="9" rx="4.5" fill="#FF6B35"/>
</svg>
